<mxfile host="65bd71144e">
    <diagram name="Page-1" id="M-BLVznhsnThxgSlgDWu">
        <mxGraphModel dx="1221" dy="831" grid="1" gridSize="10" guides="1" tooltips="1" connect="1" arrows="1" fold="1" page="1" pageScale="1" pageWidth="3300" pageHeight="2339" math="0" shadow="0">
            <root>
                <mxCell id="0"/>
                <mxCell id="1" parent="0"/>
                <mxCell id="BwTlJDTUsayFssBV5Uxb-216" value="" style="rounded=1;whiteSpace=wrap;html=1;fillColor=none;dashed=1;strokeWidth=3;movable=0;resizable=0;rotatable=0;deletable=0;editable=0;locked=1;connectable=0;" parent="1" vertex="1">
                    <mxGeometry x="963" y="1120" width="468" height="880" as="geometry"/>
                </mxCell>
                <mxCell id="BwTlJDTUsayFssBV5Uxb-202" value="" style="rounded=1;whiteSpace=wrap;html=1;fillColor=none;dashed=1;strokeWidth=3;movable=0;resizable=0;rotatable=0;deletable=0;editable=0;locked=1;connectable=0;" parent="1" vertex="1">
                    <mxGeometry x="1520" y="30" width="1630" height="1970" as="geometry"/>
                </mxCell>
                <mxCell id="BwTlJDTUsayFssBV5Uxb-123" value="" style="rounded=1;whiteSpace=wrap;html=1;fillColor=none;dashed=1;strokeWidth=3;movable=0;resizable=0;rotatable=0;deletable=0;editable=0;locked=1;connectable=0;" parent="1" vertex="1">
                    <mxGeometry x="10" y="970" width="880" height="1350" as="geometry"/>
                </mxCell>
                <mxCell id="BwTlJDTUsayFssBV5Uxb-76" value="" style="rounded=1;whiteSpace=wrap;html=1;fillColor=none;dashed=1;strokeWidth=3;movable=0;resizable=0;rotatable=0;deletable=0;editable=0;locked=1;connectable=0;" parent="1" vertex="1">
                    <mxGeometry x="140" y="15" width="1340" height="865" as="geometry"/>
                </mxCell>
                <mxCell id="BwTlJDTUsayFssBV5Uxb-4" value="" style="edgeStyle=orthogonalEdgeStyle;rounded=0;orthogonalLoop=1;jettySize=auto;html=1;fontStyle=1" parent="1" source="BwTlJDTUsayFssBV5Uxb-1" target="BwTlJDTUsayFssBV5Uxb-3" edge="1">
                    <mxGeometry relative="1" as="geometry"/>
                </mxCell>
                <mxCell id="BwTlJDTUsayFssBV5Uxb-1" value="&lt;span&gt;&lt;font style=&quot;font-size: 12px;&quot;&gt;START&lt;/font&gt;&lt;/span&gt;" style="rounded=1;whiteSpace=wrap;html=1;fillColor=none;strokeColor=#82b366;fontStyle=1" parent="1" vertex="1">
                    <mxGeometry x="40" y="140" width="90" height="40" as="geometry"/>
                </mxCell>
                <mxCell id="BwTlJDTUsayFssBV5Uxb-6" value="" style="edgeStyle=orthogonalEdgeStyle;rounded=0;orthogonalLoop=1;jettySize=auto;html=1;fontStyle=1" parent="1" source="BwTlJDTUsayFssBV5Uxb-3" target="BwTlJDTUsayFssBV5Uxb-5" edge="1">
                    <mxGeometry relative="1" as="geometry"/>
                </mxCell>
                <mxCell id="BwTlJDTUsayFssBV5Uxb-7" value="&lt;span&gt;/map/map_projector_info&lt;/span&gt;" style="edgeLabel;html=1;align=center;verticalAlign=middle;resizable=0;points=[];fontStyle=1" parent="BwTlJDTUsayFssBV5Uxb-6" connectable="0" vertex="1">
                    <mxGeometry x="-0.16" y="2" relative="1" as="geometry">
                        <mxPoint as="offset"/>
                    </mxGeometry>
                </mxCell>
                <mxCell id="BwTlJDTUsayFssBV5Uxb-3" value="&lt;span&gt;map_projection_loader&lt;/span&gt;" style="rounded=1;whiteSpace=wrap;html=1;fillColor=none;strokeColor=#82b366;fontStyle=1" parent="1" vertex="1">
                    <mxGeometry x="170" y="140" width="160" height="40" as="geometry"/>
                </mxCell>
                <mxCell id="BwTlJDTUsayFssBV5Uxb-8" style="edgeStyle=orthogonalEdgeStyle;rounded=0;orthogonalLoop=1;jettySize=auto;html=1;fontStyle=1" parent="1" source="BwTlJDTUsayFssBV5Uxb-5" edge="1">
                    <mxGeometry relative="1" as="geometry">
                        <mxPoint x="460" y="250" as="targetPoint"/>
                    </mxGeometry>
                </mxCell>
                <mxCell id="BwTlJDTUsayFssBV5Uxb-9" value="/map/vector_map" style="edgeLabel;html=1;align=center;verticalAlign=middle;resizable=0;points=[];fontStyle=1" parent="BwTlJDTUsayFssBV5Uxb-8" connectable="0" vertex="1">
                    <mxGeometry x="-0.0872" y="1" relative="1" as="geometry">
                        <mxPoint as="offset"/>
                    </mxGeometry>
                </mxCell>
                <mxCell id="BwTlJDTUsayFssBV5Uxb-5" value="lanelet2_map_loader" style="rounded=1;whiteSpace=wrap;html=1;fillColor=none;strokeColor=#82b366;fontStyle=1" parent="1" vertex="1">
                    <mxGeometry x="170" y="230" width="160" height="40" as="geometry"/>
                </mxCell>
                <mxCell id="BwTlJDTUsayFssBV5Uxb-11" style="edgeStyle=orthogonalEdgeStyle;rounded=0;orthogonalLoop=1;jettySize=auto;html=1;dashed=1;fontStyle=1" parent="1" source="BwTlJDTUsayFssBV5Uxb-10" edge="1">
                    <mxGeometry relative="1" as="geometry">
                        <mxPoint x="590" y="330" as="targetPoint"/>
                        <Array as="points">
                            <mxPoint x="460" y="330"/>
                            <mxPoint x="590" y="331"/>
                        </Array>
                    </mxGeometry>
                </mxCell>
                <mxCell id="BwTlJDTUsayFssBV5Uxb-13" value="&amp;lt;partial_map_loader_srv&amp;gt;" style="edgeLabel;html=1;align=center;verticalAlign=middle;resizable=0;points=[];fontStyle=1" parent="BwTlJDTUsayFssBV5Uxb-11" connectable="0" vertex="1">
                    <mxGeometry x="-0.295" relative="1" as="geometry">
                        <mxPoint x="19" as="offset"/>
                    </mxGeometry>
                </mxCell>
                <mxCell id="BwTlJDTUsayFssBV5Uxb-25" style="edgeStyle=orthogonalEdgeStyle;rounded=0;orthogonalLoop=1;jettySize=auto;html=1;entryX=0.5;entryY=1;entryDx=0;entryDy=0;dashed=1;fontStyle=1" parent="1" source="BwTlJDTUsayFssBV5Uxb-10" target="BwTlJDTUsayFssBV5Uxb-19" edge="1">
                    <mxGeometry relative="1" as="geometry">
                        <mxPoint x="260" y="510" as="targetPoint"/>
                        <Array as="points">
                            <mxPoint x="250" y="500"/>
                            <mxPoint x="830" y="500"/>
                        </Array>
                    </mxGeometry>
                </mxCell>
                <mxCell id="BwTlJDTUsayFssBV5Uxb-26" value="&amp;lt;differential_map_loader_srv&amp;gt;" style="edgeLabel;html=1;align=center;verticalAlign=middle;resizable=0;points=[];fontStyle=1" parent="BwTlJDTUsayFssBV5Uxb-25" connectable="0" vertex="1">
                    <mxGeometry x="0.036" y="-2" relative="1" as="geometry">
                        <mxPoint as="offset"/>
                    </mxGeometry>
                </mxCell>
                <mxCell id="BwTlJDTUsayFssBV5Uxb-27" style="edgeStyle=orthogonalEdgeStyle;rounded=0;orthogonalLoop=1;jettySize=auto;html=1;exitX=0.75;exitY=1;exitDx=0;exitDy=0;entryX=0;entryY=0.75;entryDx=0;entryDy=0;fontStyle=1" parent="1" source="BwTlJDTUsayFssBV5Uxb-10" target="BwTlJDTUsayFssBV5Uxb-19" edge="1">
                    <mxGeometry relative="1" as="geometry"/>
                </mxCell>
                <mxCell id="BwTlJDTUsayFssBV5Uxb-28" value="/map/pointcloud_map" style="edgeLabel;html=1;align=center;verticalAlign=middle;resizable=0;points=[];fontStyle=1" parent="BwTlJDTUsayFssBV5Uxb-27" connectable="0" vertex="1">
                    <mxGeometry x="-0.1862" y="-2" relative="1" as="geometry">
                        <mxPoint as="offset"/>
                    </mxGeometry>
                </mxCell>
                <mxCell id="BwTlJDTUsayFssBV5Uxb-10" value="pointcloud_map_loader" style="rounded=1;whiteSpace=wrap;html=1;fillColor=none;strokeColor=#82b366;fontStyle=1" parent="1" vertex="1">
                    <mxGeometry x="170" y="310" width="160" height="40" as="geometry"/>
                </mxCell>
                <mxCell id="BwTlJDTUsayFssBV5Uxb-20" style="edgeStyle=orthogonalEdgeStyle;rounded=0;orthogonalLoop=1;jettySize=auto;html=1;exitX=0.5;exitY=1;exitDx=0;exitDy=0;entryX=0;entryY=0.5;entryDx=0;entryDy=0;fontStyle=1" parent="1" source="BwTlJDTUsayFssBV5Uxb-14" target="BwTlJDTUsayFssBV5Uxb-19" edge="1">
                    <mxGeometry relative="1" as="geometry"/>
                </mxCell>
                <mxCell id="BwTlJDTUsayFssBV5Uxb-21" value="/initialpose3d" style="edgeLabel;html=1;align=center;verticalAlign=middle;resizable=0;points=[];fontStyle=1" parent="BwTlJDTUsayFssBV5Uxb-20" connectable="0" vertex="1">
                    <mxGeometry x="-0.3579" y="1" relative="1" as="geometry">
                        <mxPoint as="offset"/>
                    </mxGeometry>
                </mxCell>
                <mxCell id="BwTlJDTUsayFssBV5Uxb-22" style="edgeStyle=orthogonalEdgeStyle;rounded=0;orthogonalLoop=1;jettySize=auto;html=1;exitX=0.75;exitY=1;exitDx=0;exitDy=0;entryX=0.25;entryY=0;entryDx=0;entryDy=0;dashed=1;fontStyle=1" parent="1" source="BwTlJDTUsayFssBV5Uxb-14" target="BwTlJDTUsayFssBV5Uxb-19" edge="1">
                    <mxGeometry relative="1" as="geometry">
                        <Array as="points">
                            <mxPoint x="710" y="395"/>
                            <mxPoint x="790" y="395"/>
                        </Array>
                    </mxGeometry>
                </mxCell>
                <mxCell id="BwTlJDTUsayFssBV5Uxb-24" value="&amp;lt;pose_initializer_srv&amp;gt;" style="edgeLabel;html=1;align=center;verticalAlign=middle;resizable=0;points=[];fontStyle=1" parent="BwTlJDTUsayFssBV5Uxb-22" connectable="0" vertex="1">
                    <mxGeometry x="0.0412" y="5" relative="1" as="geometry">
                        <mxPoint x="-4" as="offset"/>
                    </mxGeometry>
                </mxCell>
                <mxCell id="BwTlJDTUsayFssBV5Uxb-14" value="pose_initializer" style="rounded=1;whiteSpace=wrap;html=1;fillColor=none;strokeColor=#6c8ebf;fontStyle=1" parent="1" vertex="1">
                    <mxGeometry x="590" y="310" width="160" height="40" as="geometry"/>
                </mxCell>
                <mxCell id="BwTlJDTUsayFssBV5Uxb-15" style="edgeStyle=orthogonalEdgeStyle;rounded=0;orthogonalLoop=1;jettySize=auto;html=1;entryX=0.25;entryY=1;entryDx=0;entryDy=0;fontStyle=1" parent="1" target="BwTlJDTUsayFssBV5Uxb-14" edge="1">
                    <mxGeometry relative="1" as="geometry">
                        <mxPoint x="630" y="380" as="targetPoint"/>
                        <mxPoint x="500" y="380" as="sourcePoint"/>
                    </mxGeometry>
                </mxCell>
                <mxCell id="BwTlJDTUsayFssBV5Uxb-16" value="/initialpose" style="edgeLabel;html=1;align=center;verticalAlign=middle;resizable=0;points=[];fontStyle=1" parent="BwTlJDTUsayFssBV5Uxb-15" connectable="0" vertex="1">
                    <mxGeometry x="-0.0872" y="1" relative="1" as="geometry">
                        <mxPoint as="offset"/>
                    </mxGeometry>
                </mxCell>
                <mxCell id="BwTlJDTUsayFssBV5Uxb-17" style="edgeStyle=orthogonalEdgeStyle;rounded=0;orthogonalLoop=1;jettySize=auto;html=1;entryX=0.5;entryY=0;entryDx=0;entryDy=0;fontStyle=1" parent="1" target="BwTlJDTUsayFssBV5Uxb-14" edge="1">
                    <mxGeometry relative="1" as="geometry">
                        <mxPoint x="670" y="280" as="targetPoint"/>
                        <mxPoint x="670" y="200" as="sourcePoint"/>
                    </mxGeometry>
                </mxCell>
                <mxCell id="BwTlJDTUsayFssBV5Uxb-18" value="/sensing/sensor_fusion/pose_with_covariance" style="edgeLabel;html=1;align=center;verticalAlign=middle;resizable=0;points=[];fontStyle=1" parent="BwTlJDTUsayFssBV5Uxb-17" connectable="0" vertex="1">
                    <mxGeometry x="-0.0872" y="1" relative="1" as="geometry">
                        <mxPoint x="-61" y="-1" as="offset"/>
                    </mxGeometry>
                </mxCell>
                <mxCell id="BwTlJDTUsayFssBV5Uxb-47" style="edgeStyle=orthogonalEdgeStyle;rounded=0;orthogonalLoop=1;jettySize=auto;html=1;exitX=0.75;exitY=1;exitDx=0;exitDy=0;entryX=0.25;entryY=0;entryDx=0;entryDy=0;" parent="1" source="BwTlJDTUsayFssBV5Uxb-19" target="BwTlJDTUsayFssBV5Uxb-46" edge="1">
                    <mxGeometry relative="1" as="geometry"/>
                </mxCell>
                <mxCell id="BwTlJDTUsayFssBV5Uxb-48" value="&lt;div&gt;pose_estimator/&lt;/div&gt;&lt;div&gt;pose_with_covariance&lt;br&gt;&lt;/div&gt;" style="edgeLabel;html=1;align=center;verticalAlign=middle;resizable=0;points=[];" parent="BwTlJDTUsayFssBV5Uxb-47" connectable="0" vertex="1">
                    <mxGeometry x="-0.0727" y="2" relative="1" as="geometry">
                        <mxPoint as="offset"/>
                    </mxGeometry>
                </mxCell>
                <mxCell id="BwTlJDTUsayFssBV5Uxb-19" value="ndt_scan_matcher" style="rounded=1;whiteSpace=wrap;html=1;fillColor=none;strokeColor=#6c8ebf;fontStyle=1" parent="1" vertex="1">
                    <mxGeometry x="750" y="440" width="160" height="40" as="geometry"/>
                </mxCell>
                <mxCell id="BwTlJDTUsayFssBV5Uxb-36" value="random_downsample_filter" style="rounded=1;whiteSpace=wrap;html=1;fillColor=none;strokeColor=#6c8ebf;fontStyle=1" parent="1" vertex="1">
                    <mxGeometry x="790" y="320" width="180" height="40" as="geometry"/>
                </mxCell>
                <mxCell id="BwTlJDTUsayFssBV5Uxb-39" value="" style="edgeStyle=orthogonalEdgeStyle;rounded=0;orthogonalLoop=1;jettySize=auto;html=1;" parent="1" source="BwTlJDTUsayFssBV5Uxb-37" target="BwTlJDTUsayFssBV5Uxb-36" edge="1">
                    <mxGeometry relative="1" as="geometry"/>
                </mxCell>
                <mxCell id="BwTlJDTUsayFssBV5Uxb-40" value="/localization/util/voxel_grid_downsample/pointcloud" style="edgeLabel;html=1;align=center;verticalAlign=middle;resizable=0;points=[];" parent="BwTlJDTUsayFssBV5Uxb-39" connectable="0" vertex="1">
                    <mxGeometry x="-0.0684" y="2" relative="1" as="geometry">
                        <mxPoint as="offset"/>
                    </mxGeometry>
                </mxCell>
                <mxCell id="BwTlJDTUsayFssBV5Uxb-37" value="voxel_grid_downsample_filter" style="rounded=1;whiteSpace=wrap;html=1;fillColor=none;strokeColor=#6c8ebf;fontStyle=1" parent="1" vertex="1">
                    <mxGeometry x="790" y="220" width="180" height="40" as="geometry"/>
                </mxCell>
                <mxCell id="BwTlJDTUsayFssBV5Uxb-42" value="" style="edgeStyle=orthogonalEdgeStyle;rounded=0;orthogonalLoop=1;jettySize=auto;html=1;" parent="1" source="BwTlJDTUsayFssBV5Uxb-41" target="BwTlJDTUsayFssBV5Uxb-37" edge="1">
                    <mxGeometry relative="1" as="geometry"/>
                </mxCell>
                <mxCell id="BwTlJDTUsayFssBV5Uxb-43" value="/localization/util/measurement_range/pointcloud" style="edgeLabel;html=1;align=center;verticalAlign=middle;resizable=0;points=[];" parent="BwTlJDTUsayFssBV5Uxb-42" connectable="0" vertex="1">
                    <mxGeometry x="-0.086" y="1" relative="1" as="geometry">
                        <mxPoint as="offset"/>
                    </mxGeometry>
                </mxCell>
                <mxCell id="BwTlJDTUsayFssBV5Uxb-41" value="crop_box_filter_measurement_range" style="rounded=1;whiteSpace=wrap;html=1;fillColor=none;strokeColor=#6c8ebf;fontStyle=1" parent="1" vertex="1">
                    <mxGeometry x="725" y="120" width="310" height="40" as="geometry"/>
                </mxCell>
                <mxCell id="BwTlJDTUsayFssBV5Uxb-44" value="" style="edgeStyle=orthogonalEdgeStyle;rounded=0;orthogonalLoop=1;jettySize=auto;html=1;" parent="1" edge="1">
                    <mxGeometry relative="1" as="geometry">
                        <mxPoint x="879.47" y="60" as="sourcePoint"/>
                        <mxPoint x="879.47" y="120" as="targetPoint"/>
                    </mxGeometry>
                </mxCell>
                <mxCell id="BwTlJDTUsayFssBV5Uxb-45" value="/sensing/lidar/top/points_raw" style="edgeLabel;html=1;align=center;verticalAlign=middle;resizable=0;points=[];" parent="BwTlJDTUsayFssBV5Uxb-44" connectable="0" vertex="1">
                    <mxGeometry x="-0.086" y="1" relative="1" as="geometry">
                        <mxPoint as="offset"/>
                    </mxGeometry>
                </mxCell>
                <mxCell id="BwTlJDTUsayFssBV5Uxb-49" style="edgeStyle=orthogonalEdgeStyle;rounded=0;orthogonalLoop=1;jettySize=auto;html=1;exitX=0.5;exitY=0;exitDx=0;exitDy=0;entryX=1;entryY=0.75;entryDx=0;entryDy=0;" parent="1" source="BwTlJDTUsayFssBV5Uxb-46" target="BwTlJDTUsayFssBV5Uxb-19" edge="1">
                    <mxGeometry relative="1" as="geometry">
                        <Array as="points">
                            <mxPoint x="1070" y="590"/>
                            <mxPoint x="1070" y="470"/>
                        </Array>
                    </mxGeometry>
                </mxCell>
                <mxCell id="BwTlJDTUsayFssBV5Uxb-50" value="&lt;div&gt;/pose_twist_fusion_filter/&lt;/div&gt;&lt;div&gt;pose_with_covariance_no&lt;/div&gt;&lt;div&gt;_yawbias&lt;br&gt;&lt;/div&gt;" style="edgeLabel;html=1;align=center;verticalAlign=middle;resizable=0;points=[];" parent="BwTlJDTUsayFssBV5Uxb-49" connectable="0" vertex="1">
                    <mxGeometry x="0.4519" y="3" relative="1" as="geometry">
                        <mxPoint as="offset"/>
                    </mxGeometry>
                </mxCell>
                <mxCell id="BwTlJDTUsayFssBV5Uxb-64" style="edgeStyle=orthogonalEdgeStyle;rounded=0;orthogonalLoop=1;jettySize=auto;html=1;exitX=0.25;exitY=1;exitDx=0;exitDy=0;" parent="1" edge="1">
                    <mxGeometry relative="1" as="geometry">
                        <mxPoint x="1010.2241379310344" y="760" as="targetPoint"/>
                        <mxPoint x="1009.9999999999998" y="670" as="sourcePoint"/>
                    </mxGeometry>
                </mxCell>
                <mxCell id="BwTlJDTUsayFssBV5Uxb-65" value="&lt;div&gt;/tf&lt;/div&gt;&lt;div&gt;(map to base_link)&lt;br&gt;&lt;/div&gt;" style="edgeLabel;html=1;align=center;verticalAlign=middle;resizable=0;points=[];" parent="BwTlJDTUsayFssBV5Uxb-64" connectable="0" vertex="1">
                    <mxGeometry x="-0.0814" y="-2" relative="1" as="geometry">
                        <mxPoint as="offset"/>
                    </mxGeometry>
                </mxCell>
                <mxCell id="BwTlJDTUsayFssBV5Uxb-66" style="edgeStyle=orthogonalEdgeStyle;rounded=0;orthogonalLoop=1;jettySize=auto;html=1;" parent="1" source="BwTlJDTUsayFssBV5Uxb-46" edge="1">
                    <mxGeometry relative="1" as="geometry">
                        <mxPoint x="1124.9999999999998" y="730" as="targetPoint"/>
                    </mxGeometry>
                </mxCell>
                <mxCell id="BwTlJDTUsayFssBV5Uxb-67" value="&lt;div&gt;pose_twist_fusion_filter/&lt;/div&gt;&lt;div&gt;kinematic_state&lt;br&gt;&lt;/div&gt;" style="edgeLabel;html=1;align=center;verticalAlign=middle;resizable=0;points=[];" parent="BwTlJDTUsayFssBV5Uxb-66" connectable="0" vertex="1">
                    <mxGeometry x="-0.17" relative="1" as="geometry">
                        <mxPoint as="offset"/>
                    </mxGeometry>
                </mxCell>
                <mxCell id="BwTlJDTUsayFssBV5Uxb-72" style="edgeStyle=orthogonalEdgeStyle;rounded=0;orthogonalLoop=1;jettySize=auto;html=1;exitX=1;exitY=0.5;exitDx=0;exitDy=0;entryX=0.5;entryY=0;entryDx=0;entryDy=0;" parent="1" source="BwTlJDTUsayFssBV5Uxb-46" target="BwTlJDTUsayFssBV5Uxb-71" edge="1">
                    <mxGeometry relative="1" as="geometry"/>
                </mxCell>
                <mxCell id="BwTlJDTUsayFssBV5Uxb-73" value="&lt;div&gt;pose_twist_fusion_filter/&lt;/div&gt;&lt;div&gt;pose_with_covariance&lt;br&gt;&lt;/div&gt;" style="edgeLabel;html=1;align=center;verticalAlign=middle;resizable=0;points=[];" parent="BwTlJDTUsayFssBV5Uxb-72" connectable="0" vertex="1">
                    <mxGeometry x="0.2822" y="1" relative="1" as="geometry">
                        <mxPoint as="offset"/>
                    </mxGeometry>
                </mxCell>
                <mxCell id="BwTlJDTUsayFssBV5Uxb-46" value="ekf_localizer" style="rounded=1;whiteSpace=wrap;html=1;fillColor=none;strokeColor=#6c8ebf;fontStyle=1" parent="1" vertex="1">
                    <mxGeometry x="980" y="630" width="290" height="40" as="geometry"/>
                </mxCell>
                <mxCell id="BwTlJDTUsayFssBV5Uxb-52" style="edgeStyle=orthogonalEdgeStyle;rounded=0;orthogonalLoop=1;jettySize=auto;html=1;" parent="1" source="BwTlJDTUsayFssBV5Uxb-51" edge="1">
                    <mxGeometry relative="1" as="geometry">
                        <mxPoint x="1147" y="375" as="targetPoint"/>
                    </mxGeometry>
                </mxCell>
                <mxCell id="BwTlJDTUsayFssBV5Uxb-53" value="/imu" style="edgeLabel;html=1;align=center;verticalAlign=middle;resizable=0;points=[];" parent="BwTlJDTUsayFssBV5Uxb-52" connectable="0" vertex="1">
                    <mxGeometry x="-0.1056" y="1" relative="1" as="geometry">
                        <mxPoint as="offset"/>
                    </mxGeometry>
                </mxCell>
                <mxCell id="BwTlJDTUsayFssBV5Uxb-51" value="IMU Driver" style="rounded=1;whiteSpace=wrap;html=1;fillColor=none;strokeColor=#6c8ebf;fontStyle=1" parent="1" vertex="1">
                    <mxGeometry x="1082" y="255" width="130" height="40" as="geometry"/>
                </mxCell>
                <mxCell id="BwTlJDTUsayFssBV5Uxb-60" style="edgeStyle=orthogonalEdgeStyle;rounded=0;orthogonalLoop=1;jettySize=auto;html=1;entryX=0.75;entryY=0;entryDx=0;entryDy=0;" parent="1" source="BwTlJDTUsayFssBV5Uxb-54" target="BwTlJDTUsayFssBV5Uxb-58" edge="1">
                    <mxGeometry relative="1" as="geometry"/>
                </mxCell>
                <mxCell id="BwTlJDTUsayFssBV5Uxb-61" value="/buggy_odom" style="edgeLabel;html=1;align=center;verticalAlign=middle;resizable=0;points=[];" parent="BwTlJDTUsayFssBV5Uxb-60" connectable="0" vertex="1">
                    <mxGeometry x="0.3108" y="-3" relative="1" as="geometry">
                        <mxPoint as="offset"/>
                    </mxGeometry>
                </mxCell>
                <mxCell id="BwTlJDTUsayFssBV5Uxb-54" value="Buggy_Base_Driver" style="rounded=1;whiteSpace=wrap;html=1;fillColor=none;strokeColor=#6c8ebf;fontStyle=1" parent="1" vertex="1">
                    <mxGeometry x="1282" y="255" width="130" height="40" as="geometry"/>
                </mxCell>
                <mxCell id="BwTlJDTUsayFssBV5Uxb-55" style="edgeStyle=orthogonalEdgeStyle;rounded=0;orthogonalLoop=1;jettySize=auto;html=1;entryX=0.808;entryY=-0.025;entryDx=0;entryDy=0;entryPerimeter=0;" parent="1" source="BwTlJDTUsayFssBV5Uxb-36" target="BwTlJDTUsayFssBV5Uxb-19" edge="1">
                    <mxGeometry relative="1" as="geometry"/>
                </mxCell>
                <mxCell id="BwTlJDTUsayFssBV5Uxb-56" value="&lt;div&gt;/localization/util/&lt;/div&gt;&lt;div&gt;downsample/pointcloud&lt;br&gt;&lt;/div&gt;" style="edgeLabel;html=1;align=center;verticalAlign=middle;resizable=0;points=[];" parent="BwTlJDTUsayFssBV5Uxb-55" connectable="0" vertex="1">
                    <mxGeometry x="-0.1255" y="-1" relative="1" as="geometry">
                        <mxPoint as="offset"/>
                    </mxGeometry>
                </mxCell>
                <mxCell id="BwTlJDTUsayFssBV5Uxb-57" value="LIDAR Driver" style="rounded=1;whiteSpace=wrap;html=1;fillColor=none;strokeColor=#6c8ebf;fontStyle=1" parent="1" vertex="1">
                    <mxGeometry x="820" y="20" width="130" height="40" as="geometry"/>
                </mxCell>
                <mxCell id="BwTlJDTUsayFssBV5Uxb-62" style="edgeStyle=orthogonalEdgeStyle;rounded=0;orthogonalLoop=1;jettySize=auto;html=1;entryX=0.75;entryY=0;entryDx=0;entryDy=0;" parent="1" source="BwTlJDTUsayFssBV5Uxb-58" target="BwTlJDTUsayFssBV5Uxb-46" edge="1">
                    <mxGeometry relative="1" as="geometry"/>
                </mxCell>
                <mxCell id="BwTlJDTUsayFssBV5Uxb-63" value="&lt;div&gt;twist_estimator/&lt;/div&gt;&lt;div&gt;twist_with_covariance&lt;br&gt;&lt;/div&gt;" style="edgeLabel;html=1;align=center;verticalAlign=middle;resizable=0;points=[];" parent="BwTlJDTUsayFssBV5Uxb-62" connectable="0" vertex="1">
                    <mxGeometry x="-0.3115" y="3" relative="1" as="geometry">
                        <mxPoint x="-1" as="offset"/>
                    </mxGeometry>
                </mxCell>
                <mxCell id="BwTlJDTUsayFssBV5Uxb-58" value="robot_localization" style="rounded=1;whiteSpace=wrap;html=1;fillColor=none;strokeColor=#6c8ebf;fontStyle=1" parent="1" vertex="1">
                    <mxGeometry x="1132" y="385" width="130" height="40" as="geometry"/>
                </mxCell>
                <mxCell id="BwTlJDTUsayFssBV5Uxb-69" style="edgeStyle=orthogonalEdgeStyle;rounded=0;orthogonalLoop=1;jettySize=auto;html=1;exitX=0.5;exitY=1;exitDx=0;exitDy=0;" parent="1" source="BwTlJDTUsayFssBV5Uxb-68" edge="1">
                    <mxGeometry relative="1" as="geometry">
                        <mxPoint x="1125.1379310344828" y="820" as="targetPoint"/>
                    </mxGeometry>
                </mxCell>
                <mxCell id="BwTlJDTUsayFssBV5Uxb-70" value="&lt;div&gt;/localization/kinematic_state&lt;/div&gt;&lt;div&gt;[nav_msgs/msg/Odometry]&lt;/div&gt;" style="edgeLabel;html=1;align=center;verticalAlign=middle;resizable=0;points=[];" parent="BwTlJDTUsayFssBV5Uxb-69" connectable="0" vertex="1">
                    <mxGeometry x="-0.115" y="-1" relative="1" as="geometry">
                        <mxPoint as="offset"/>
                    </mxGeometry>
                </mxCell>
                <mxCell id="BwTlJDTUsayFssBV5Uxb-68" value="stop_filter" style="rounded=1;whiteSpace=wrap;html=1;fillColor=none;strokeColor=#6c8ebf;fontStyle=1" parent="1" vertex="1">
                    <mxGeometry x="1075" y="730" width="100" height="30" as="geometry"/>
                </mxCell>
                <mxCell id="BwTlJDTUsayFssBV5Uxb-74" style="edgeStyle=orthogonalEdgeStyle;rounded=0;orthogonalLoop=1;jettySize=auto;html=1;exitX=0.5;exitY=1;exitDx=0;exitDy=0;" parent="1" source="BwTlJDTUsayFssBV5Uxb-71" edge="1">
                    <mxGeometry relative="1" as="geometry">
                        <mxPoint x="1355" y="850" as="targetPoint"/>
                        <Array as="points">
                            <mxPoint x="1355" y="850"/>
                        </Array>
                    </mxGeometry>
                </mxCell>
                <mxCell id="BwTlJDTUsayFssBV5Uxb-75" value="/diagnostics" style="edgeLabel;html=1;align=center;verticalAlign=middle;resizable=0;points=[];" parent="BwTlJDTUsayFssBV5Uxb-74" connectable="0" vertex="1">
                    <mxGeometry x="-0.1311" y="1" relative="1" as="geometry">
                        <mxPoint x="4" y="5" as="offset"/>
                    </mxGeometry>
                </mxCell>
                <mxCell id="BwTlJDTUsayFssBV5Uxb-71" value="localization_error_monitor" style="rounded=1;whiteSpace=wrap;html=1;fillColor=none;strokeColor=#6c8ebf;fontStyle=1" parent="1" vertex="1">
                    <mxGeometry x="1270" y="760" width="170" height="30" as="geometry"/>
                </mxCell>
                <mxCell id="BwTlJDTUsayFssBV5Uxb-84" style="edgeStyle=orthogonalEdgeStyle;rounded=0;orthogonalLoop=1;jettySize=auto;html=1;exitX=1;exitY=0.5;exitDx=0;exitDy=0;" parent="1" source="BwTlJDTUsayFssBV5Uxb-77" edge="1">
                    <mxGeometry relative="1" as="geometry">
                        <mxPoint x="650" y="1090" as="targetPoint"/>
                    </mxGeometry>
                </mxCell>
                <mxCell id="BwTlJDTUsayFssBV5Uxb-85" value="&lt;div&gt;/sensing/lidar/&lt;/div&gt;&lt;div&gt;concatenated/pointcloud&lt;/div&gt;" style="edgeLabel;html=1;align=center;verticalAlign=middle;resizable=0;points=[];" parent="BwTlJDTUsayFssBV5Uxb-84" connectable="0" vertex="1">
                    <mxGeometry x="-0.3689" relative="1" as="geometry">
                        <mxPoint x="33" as="offset"/>
                    </mxGeometry>
                </mxCell>
                <mxCell id="BwTlJDTUsayFssBV5Uxb-77" value="concatenate_data" style="rounded=1;whiteSpace=wrap;html=1;fillColor=none;strokeColor=#b85450;fontStyle=1" parent="1" vertex="1">
                    <mxGeometry x="310" y="1070" width="160" height="40" as="geometry"/>
                </mxCell>
                <mxCell id="BwTlJDTUsayFssBV5Uxb-78" style="edgeStyle=orthogonalEdgeStyle;rounded=0;orthogonalLoop=1;jettySize=auto;html=1;fontStyle=1;entryX=0;entryY=0.5;entryDx=0;entryDy=0;" parent="1" target="BwTlJDTUsayFssBV5Uxb-77" edge="1">
                    <mxGeometry relative="1" as="geometry">
                        <mxPoint x="230" y="1089.17" as="targetPoint"/>
                        <mxPoint x="100" y="1090" as="sourcePoint"/>
                    </mxGeometry>
                </mxCell>
                <mxCell id="BwTlJDTUsayFssBV5Uxb-79" value="/sensing/lidar/top/points_raw" style="edgeLabel;html=1;align=center;verticalAlign=middle;resizable=0;points=[];fontStyle=1" parent="BwTlJDTUsayFssBV5Uxb-78" connectable="0" vertex="1">
                    <mxGeometry x="-0.0872" y="1" relative="1" as="geometry">
                        <mxPoint x="4" y="1" as="offset"/>
                    </mxGeometry>
                </mxCell>
                <mxCell id="BwTlJDTUsayFssBV5Uxb-80" style="edgeStyle=orthogonalEdgeStyle;rounded=0;orthogonalLoop=1;jettySize=auto;html=1;fontStyle=1;entryX=0.09;entryY=-0.108;entryDx=0;entryDy=0;entryPerimeter=0;" parent="1" target="BwTlJDTUsayFssBV5Uxb-77" edge="1">
                    <mxGeometry relative="1" as="geometry">
                        <mxPoint x="320" y="1030.83" as="targetPoint"/>
                        <mxPoint x="100" y="1031" as="sourcePoint"/>
                    </mxGeometry>
                </mxCell>
                <mxCell id="BwTlJDTUsayFssBV5Uxb-81" value="/sensing/lidar/left/points_raw" style="edgeLabel;html=1;align=center;verticalAlign=middle;resizable=0;points=[];fontStyle=1" parent="BwTlJDTUsayFssBV5Uxb-80" connectable="0" vertex="1">
                    <mxGeometry x="-0.0872" y="1" relative="1" as="geometry">
                        <mxPoint x="-14" y="1" as="offset"/>
                    </mxGeometry>
                </mxCell>
                <mxCell id="BwTlJDTUsayFssBV5Uxb-82" style="edgeStyle=orthogonalEdgeStyle;rounded=0;orthogonalLoop=1;jettySize=auto;html=1;fontStyle=1;entryX=0.079;entryY=1.079;entryDx=0;entryDy=0;entryPerimeter=0;" parent="1" target="BwTlJDTUsayFssBV5Uxb-77" edge="1">
                    <mxGeometry relative="1" as="geometry">
                        <mxPoint x="309.5" y="1186" as="targetPoint"/>
                        <mxPoint x="95.5" y="1150" as="sourcePoint"/>
                    </mxGeometry>
                </mxCell>
                <mxCell id="BwTlJDTUsayFssBV5Uxb-83" value="/sensing/lidar/right/points_raw" style="edgeLabel;html=1;align=center;verticalAlign=middle;resizable=0;points=[];fontStyle=1" parent="BwTlJDTUsayFssBV5Uxb-82" connectable="0" vertex="1">
                    <mxGeometry x="-0.0872" y="1" relative="1" as="geometry">
                        <mxPoint x="-14" y="1" as="offset"/>
                    </mxGeometry>
                </mxCell>
                <mxCell id="BwTlJDTUsayFssBV5Uxb-86" value="obstacle_crop_box_filter" style="rounded=1;whiteSpace=wrap;html=1;fillColor=none;strokeColor=#b85450;fontStyle=1" parent="1" vertex="1">
                    <mxGeometry x="650" y="1070" width="180" height="40" as="geometry"/>
                </mxCell>
                <mxCell id="BwTlJDTUsayFssBV5Uxb-91" style="edgeStyle=orthogonalEdgeStyle;rounded=0;orthogonalLoop=1;jettySize=auto;html=1;exitX=0.5;exitY=1;exitDx=0;exitDy=0;entryX=0.5;entryY=0;entryDx=0;entryDy=0;" parent="1" source="BwTlJDTUsayFssBV5Uxb-87" target="BwTlJDTUsayFssBV5Uxb-93" edge="1">
                    <mxGeometry relative="1" as="geometry">
                        <mxPoint x="739.9999999999998" y="1330" as="targetPoint"/>
                    </mxGeometry>
                </mxCell>
                <mxCell id="BwTlJDTUsayFssBV5Uxb-92" value="/perception/obstacle_segmentation/pointcloud" style="edgeLabel;html=1;align=center;verticalAlign=middle;resizable=0;points=[];" parent="BwTlJDTUsayFssBV5Uxb-91" connectable="0" vertex="1">
                    <mxGeometry x="-0.1739" y="3" relative="1" as="geometry">
                        <mxPoint as="offset"/>
                    </mxGeometry>
                </mxCell>
                <mxCell id="BwTlJDTUsayFssBV5Uxb-87" value="common_ground_filter" style="rounded=1;whiteSpace=wrap;html=1;fillColor=none;strokeColor=#b85450;fontStyle=1" parent="1" vertex="1">
                    <mxGeometry x="650" y="1200" width="180" height="40" as="geometry"/>
                </mxCell>
                <mxCell id="BwTlJDTUsayFssBV5Uxb-88" style="edgeStyle=orthogonalEdgeStyle;rounded=0;orthogonalLoop=1;jettySize=auto;html=1;exitX=0.5;exitY=1;exitDx=0;exitDy=0;entryX=0.5;entryY=0;entryDx=0;entryDy=0;" parent="1" source="BwTlJDTUsayFssBV5Uxb-86" target="BwTlJDTUsayFssBV5Uxb-87" edge="1">
                    <mxGeometry relative="1" as="geometry">
                        <Array as="points"/>
                    </mxGeometry>
                </mxCell>
                <mxCell id="BwTlJDTUsayFssBV5Uxb-89" value="&lt;div&gt;/perception/obstacle_segmentation/&lt;/div&gt;&lt;div&gt;range_cropped/pointcloud&lt;/div&gt;" style="edgeLabel;html=1;align=center;verticalAlign=middle;resizable=0;points=[];" parent="BwTlJDTUsayFssBV5Uxb-88" connectable="0" vertex="1">
                    <mxGeometry x="-0.1054" y="1" relative="1" as="geometry">
                        <mxPoint as="offset"/>
                    </mxGeometry>
                </mxCell>
                <mxCell id="BwTlJDTUsayFssBV5Uxb-95" style="edgeStyle=orthogonalEdgeStyle;rounded=0;orthogonalLoop=1;jettySize=auto;html=1;exitX=0.5;exitY=1;exitDx=0;exitDy=0;entryX=0.5;entryY=0;entryDx=0;entryDy=0;" parent="1" source="BwTlJDTUsayFssBV5Uxb-93" target="BwTlJDTUsayFssBV5Uxb-98" edge="1">
                    <mxGeometry relative="1" as="geometry">
                        <mxPoint x="600" y="1440" as="targetPoint"/>
                        <Array as="points">
                            <mxPoint x="245" y="1410"/>
                            <mxPoint x="245" y="1410"/>
                        </Array>
                    </mxGeometry>
                </mxCell>
                <mxCell id="BwTlJDTUsayFssBV5Uxb-97" value="&lt;div&gt;/perception/object_recognition/detection&lt;/div&gt;&lt;div&gt;/clustering/clusters&lt;/div&gt;" style="edgeLabel;html=1;align=center;verticalAlign=middle;resizable=0;points=[];" parent="BwTlJDTUsayFssBV5Uxb-95" connectable="0" vertex="1">
                    <mxGeometry x="-0.536" y="-2" relative="1" as="geometry">
                        <mxPoint x="-3" y="30" as="offset"/>
                    </mxGeometry>
                </mxCell>
                <mxCell id="BwTlJDTUsayFssBV5Uxb-93" value="euclidean_cluster" style="rounded=1;whiteSpace=wrap;html=1;fillColor=none;strokeColor=#b85450;fontStyle=1" parent="1" vertex="1">
                    <mxGeometry x="170" y="1340" width="150" height="40" as="geometry"/>
                </mxCell>
                <mxCell id="BwTlJDTUsayFssBV5Uxb-98" value="shape_estimation" style="rounded=1;whiteSpace=wrap;html=1;fillColor=none;strokeColor=#b85450;fontStyle=1" parent="1" vertex="1">
                    <mxGeometry x="170" y="1470" width="150" height="40" as="geometry"/>
                </mxCell>
                <mxCell id="BwTlJDTUsayFssBV5Uxb-99" style="edgeStyle=orthogonalEdgeStyle;rounded=0;orthogonalLoop=1;jettySize=auto;html=1;exitX=0.5;exitY=1;exitDx=0;exitDy=0;" parent="1" edge="1">
                    <mxGeometry relative="1" as="geometry">
                        <mxPoint x="245" y="1610" as="targetPoint"/>
                        <mxPoint x="244.5" y="1510" as="sourcePoint"/>
                        <Array as="points">
                            <mxPoint x="245" y="1560"/>
                            <mxPoint x="245" y="1560"/>
                        </Array>
                    </mxGeometry>
                </mxCell>
                <mxCell id="BwTlJDTUsayFssBV5Uxb-100" value="&lt;div&gt;/perception/object_recognition/detection/&lt;/div&gt;&lt;div&gt;clustering/objects_with_feature&lt;/div&gt;" style="edgeLabel;html=1;align=center;verticalAlign=middle;resizable=0;points=[];" parent="BwTlJDTUsayFssBV5Uxb-99" connectable="0" vertex="1">
                    <mxGeometry x="-0.536" y="-2" relative="1" as="geometry">
                        <mxPoint x="7" y="17" as="offset"/>
                    </mxGeometry>
                </mxCell>
                <mxCell id="BwTlJDTUsayFssBV5Uxb-103" style="edgeStyle=orthogonalEdgeStyle;rounded=0;orthogonalLoop=1;jettySize=auto;html=1;" parent="1" source="BwTlJDTUsayFssBV5Uxb-101" target="BwTlJDTUsayFssBV5Uxb-102" edge="1">
                    <mxGeometry relative="1" as="geometry">
                        <Array as="points">
                            <mxPoint x="240" y="1670"/>
                            <mxPoint x="240" y="1670"/>
                        </Array>
                    </mxGeometry>
                </mxCell>
                <mxCell id="BwTlJDTUsayFssBV5Uxb-105" value="&lt;div&gt;/perception/object_recognition/detection&lt;/div&gt;&lt;div&gt;/detection_by_tracker/objects&lt;/div&gt;" style="edgeLabel;html=1;align=center;verticalAlign=middle;resizable=0;points=[];" parent="BwTlJDTUsayFssBV5Uxb-103" connectable="0" vertex="1">
                    <mxGeometry x="-0.2853" y="-4" relative="1" as="geometry">
                        <mxPoint x="9" y="13" as="offset"/>
                    </mxGeometry>
                </mxCell>
                <mxCell id="BwTlJDTUsayFssBV5Uxb-101" value="detection_by_tracker_node" style="rounded=1;whiteSpace=wrap;html=1;fillColor=none;strokeColor=#b85450;fontStyle=1" parent="1" vertex="1">
                    <mxGeometry x="160" y="1610" width="175" height="40" as="geometry"/>
                </mxCell>
                <mxCell id="BwTlJDTUsayFssBV5Uxb-107" style="edgeStyle=orthogonalEdgeStyle;rounded=0;orthogonalLoop=1;jettySize=auto;html=1;exitX=0.5;exitY=1;exitDx=0;exitDy=0;entryX=0.5;entryY=0;entryDx=0;entryDy=0;" parent="1" source="BwTlJDTUsayFssBV5Uxb-102" target="BwTlJDTUsayFssBV5Uxb-106" edge="1">
                    <mxGeometry relative="1" as="geometry"/>
                </mxCell>
                <mxCell id="BwTlJDTUsayFssBV5Uxb-108" value="&lt;div&gt;/perception/object_recognition/&lt;/div&gt;&lt;div&gt;detection/objects_before_filter&lt;/div&gt;" style="edgeLabel;html=1;align=center;verticalAlign=middle;resizable=0;points=[];" parent="BwTlJDTUsayFssBV5Uxb-107" connectable="0" vertex="1">
                    <mxGeometry x="-0.0408" relative="1" as="geometry">
                        <mxPoint as="offset"/>
                    </mxGeometry>
                </mxCell>
                <mxCell id="BwTlJDTUsayFssBV5Uxb-102" value="object_association_merger" style="rounded=1;whiteSpace=wrap;html=1;fillColor=none;strokeColor=#b85450;fontStyle=1" parent="1" vertex="1">
                    <mxGeometry x="157.5" y="1740" width="175" height="40" as="geometry"/>
                </mxCell>
                <mxCell id="BwTlJDTUsayFssBV5Uxb-104" style="edgeStyle=orthogonalEdgeStyle;rounded=0;orthogonalLoop=1;jettySize=auto;html=1;exitX=0.5;exitY=1;exitDx=0;exitDy=0;" parent="1" source="BwTlJDTUsayFssBV5Uxb-102" target="BwTlJDTUsayFssBV5Uxb-102" edge="1">
                    <mxGeometry relative="1" as="geometry"/>
                </mxCell>
                <mxCell id="BwTlJDTUsayFssBV5Uxb-112" value="" style="edgeStyle=orthogonalEdgeStyle;rounded=0;orthogonalLoop=1;jettySize=auto;html=1;" parent="1" source="BwTlJDTUsayFssBV5Uxb-106" target="BwTlJDTUsayFssBV5Uxb-111" edge="1">
                    <mxGeometry relative="1" as="geometry"/>
                </mxCell>
                <mxCell id="BwTlJDTUsayFssBV5Uxb-113" value="&lt;div&gt;/perception/object_recognition/&lt;/div&gt;&lt;div&gt;detection/objects&lt;/div&gt;" style="edgeLabel;html=1;align=center;verticalAlign=middle;resizable=0;points=[];" parent="BwTlJDTUsayFssBV5Uxb-112" connectable="0" vertex="1">
                    <mxGeometry x="0.0765" relative="1" as="geometry">
                        <mxPoint as="offset"/>
                    </mxGeometry>
                </mxCell>
                <mxCell id="BwTlJDTUsayFssBV5Uxb-106" value="object_lanelet_filter" style="rounded=1;whiteSpace=wrap;html=1;fillColor=none;strokeColor=#b85450;fontStyle=1" parent="1" vertex="1">
                    <mxGeometry x="157.5" y="1850" width="175" height="40" as="geometry"/>
                </mxCell>
                <mxCell id="BwTlJDTUsayFssBV5Uxb-109" style="edgeStyle=orthogonalEdgeStyle;rounded=0;orthogonalLoop=1;jettySize=auto;html=1;exitX=0.5;exitY=1;exitDx=0;exitDy=0;entryX=0;entryY=0.5;entryDx=0;entryDy=0;" parent="1" target="BwTlJDTUsayFssBV5Uxb-106" edge="1">
                    <mxGeometry relative="1" as="geometry">
                        <mxPoint x="57.02000000000001" y="1800" as="sourcePoint"/>
                        <mxPoint x="130" y="1870" as="targetPoint"/>
                        <Array as="points">
                            <mxPoint x="57" y="1801"/>
                            <mxPoint x="94" y="1801"/>
                            <mxPoint x="94" y="1870"/>
                        </Array>
                    </mxGeometry>
                </mxCell>
                <mxCell id="BwTlJDTUsayFssBV5Uxb-110" value="/map/vector_map" style="edgeLabel;html=1;align=center;verticalAlign=middle;resizable=0;points=[];" parent="BwTlJDTUsayFssBV5Uxb-109" connectable="0" vertex="1">
                    <mxGeometry x="-0.0408" relative="1" as="geometry">
                        <mxPoint y="-5" as="offset"/>
                    </mxGeometry>
                </mxCell>
                <mxCell id="BwTlJDTUsayFssBV5Uxb-114" style="edgeStyle=orthogonalEdgeStyle;rounded=0;orthogonalLoop=1;jettySize=auto;html=1;entryX=1;entryY=0.5;entryDx=0;entryDy=0;" parent="1" target="BwTlJDTUsayFssBV5Uxb-101" edge="1">
                    <mxGeometry relative="1" as="geometry">
                        <mxPoint x="245.9999999999999" y="2050" as="sourcePoint"/>
                        <mxPoint x="335" y="1670" as="targetPoint"/>
                        <Array as="points">
                            <mxPoint x="246" y="2110"/>
                            <mxPoint x="460" y="2110"/>
                            <mxPoint x="460" y="1630"/>
                        </Array>
                    </mxGeometry>
                </mxCell>
                <mxCell id="BwTlJDTUsayFssBV5Uxb-115" value="&lt;div&gt;/perception/object_recognition/&lt;/div&gt;&lt;div&gt;tracking/objects&lt;/div&gt;" style="edgeLabel;html=1;align=center;verticalAlign=middle;resizable=0;points=[];" parent="BwTlJDTUsayFssBV5Uxb-114" connectable="0" vertex="1">
                    <mxGeometry x="-0.6455" y="-3" relative="1" as="geometry">
                        <mxPoint x="-8" y="-23" as="offset"/>
                    </mxGeometry>
                </mxCell>
                <mxCell id="BwTlJDTUsayFssBV5Uxb-111" value="multi_object_tracker" style="rounded=1;whiteSpace=wrap;html=1;fillColor=none;strokeColor=#b85450;fontStyle=1" parent="1" vertex="1">
                    <mxGeometry x="158.5" y="1970" width="175" height="40" as="geometry"/>
                </mxCell>
                <mxCell id="BwTlJDTUsayFssBV5Uxb-120" style="edgeStyle=orthogonalEdgeStyle;rounded=0;orthogonalLoop=1;jettySize=auto;html=1;" parent="1" source="BwTlJDTUsayFssBV5Uxb-116" edge="1">
                    <mxGeometry relative="1" as="geometry">
                        <mxPoint x="590" y="2190" as="targetPoint"/>
                    </mxGeometry>
                </mxCell>
                <mxCell id="BwTlJDTUsayFssBV5Uxb-121" value="/perception/object_recognition/objects:" style="edgeLabel;html=1;align=center;verticalAlign=middle;resizable=0;points=[];" parent="BwTlJDTUsayFssBV5Uxb-120" connectable="0" vertex="1">
                    <mxGeometry x="-0.4887" y="-4" relative="1" as="geometry">
                        <mxPoint x="65" y="-4" as="offset"/>
                    </mxGeometry>
                </mxCell>
                <mxCell id="BwTlJDTUsayFssBV5Uxb-116" value="&lt;div&gt;map_based_prediction&lt;/div&gt;" style="rounded=1;whiteSpace=wrap;html=1;fillColor=none;strokeColor=#b85450;fontStyle=1" parent="1" vertex="1">
                    <mxGeometry x="152" y="2170" width="175" height="40" as="geometry"/>
                </mxCell>
                <mxCell id="BwTlJDTUsayFssBV5Uxb-117" style="edgeStyle=orthogonalEdgeStyle;rounded=0;orthogonalLoop=1;jettySize=auto;html=1;entryX=0.537;entryY=0.006;entryDx=0;entryDy=0;entryPerimeter=0;" parent="1" source="BwTlJDTUsayFssBV5Uxb-111" target="BwTlJDTUsayFssBV5Uxb-116" edge="1">
                    <mxGeometry relative="1" as="geometry"/>
                </mxCell>
                <mxCell id="BwTlJDTUsayFssBV5Uxb-131" style="edgeStyle=orthogonalEdgeStyle;rounded=0;orthogonalLoop=1;jettySize=auto;html=1;exitX=0.5;exitY=1;exitDx=0;exitDy=0;" parent="1" source="BwTlJDTUsayFssBV5Uxb-124" edge="1">
                    <mxGeometry relative="1" as="geometry">
                        <mxPoint x="1890" y="1330" as="targetPoint"/>
                    </mxGeometry>
                </mxCell>
                <mxCell id="BwTlJDTUsayFssBV5Uxb-132" value="/planning/scenario_planning/max_velocity_candidates" style="edgeLabel;html=1;align=center;verticalAlign=middle;resizable=0;points=[];" parent="BwTlJDTUsayFssBV5Uxb-131" connectable="0" vertex="1">
                    <mxGeometry x="-0.1085" y="-2" relative="1" as="geometry">
                        <mxPoint as="offset"/>
                    </mxGeometry>
                </mxCell>
                <mxCell id="BwTlJDTUsayFssBV5Uxb-124" value="surround_obstacle_checker" style="rounded=1;whiteSpace=wrap;html=1;fillColor=none;strokeColor=#d79b00;fontStyle=1" parent="1" vertex="1">
                    <mxGeometry x="1790" y="1160" width="200" height="40" as="geometry"/>
                </mxCell>
                <mxCell id="BwTlJDTUsayFssBV5Uxb-125" style="edgeStyle=orthogonalEdgeStyle;rounded=0;orthogonalLoop=1;jettySize=auto;html=1;entryX=0.5;entryY=0;entryDx=0;entryDy=0;" parent="1" edge="1">
                    <mxGeometry relative="1" as="geometry">
                        <mxPoint x="1803" y="1060" as="sourcePoint"/>
                        <mxPoint x="1803" y="1160" as="targetPoint"/>
                    </mxGeometry>
                </mxCell>
                <mxCell id="BwTlJDTUsayFssBV5Uxb-126" value="&lt;div&gt;/perception/&lt;/div&gt;&lt;div&gt;obstacle_segmentation/pointcloud&lt;/div&gt;" style="edgeLabel;html=1;align=center;verticalAlign=middle;resizable=0;points=[];" parent="BwTlJDTUsayFssBV5Uxb-125" connectable="0" vertex="1">
                    <mxGeometry x="-0.1739" y="3" relative="1" as="geometry">
                        <mxPoint x="7" y="9" as="offset"/>
                    </mxGeometry>
                </mxCell>
                <mxCell id="BwTlJDTUsayFssBV5Uxb-129" style="edgeStyle=orthogonalEdgeStyle;rounded=0;orthogonalLoop=1;jettySize=auto;html=1;entryX=0.5;entryY=0;entryDx=0;entryDy=0;" parent="1" edge="1">
                    <mxGeometry relative="1" as="geometry">
                        <mxPoint x="1958" y="1040" as="sourcePoint"/>
                        <mxPoint x="1958" y="1160" as="targetPoint"/>
                    </mxGeometry>
                </mxCell>
                <mxCell id="BwTlJDTUsayFssBV5Uxb-130" value="/perception/object_recognition/objects" style="edgeLabel;html=1;align=center;verticalAlign=middle;resizable=0;points=[];" parent="BwTlJDTUsayFssBV5Uxb-129" connectable="0" vertex="1">
                    <mxGeometry x="-0.1739" y="3" relative="1" as="geometry">
                        <mxPoint x="7" y="-9" as="offset"/>
                    </mxGeometry>
                </mxCell>
                <mxCell id="BwTlJDTUsayFssBV5Uxb-187" style="edgeStyle=orthogonalEdgeStyle;rounded=0;orthogonalLoop=1;jettySize=auto;html=1;exitX=0.5;exitY=1;exitDx=0;exitDy=0;entryX=0;entryY=0.5;entryDx=0;entryDy=0;" parent="1" source="BwTlJDTUsayFssBV5Uxb-133" target="BwTlJDTUsayFssBV5Uxb-194" edge="1">
                    <mxGeometry relative="1" as="geometry">
                        <mxPoint x="1910" y="1550" as="targetPoint"/>
                    </mxGeometry>
                </mxCell>
                <mxCell id="BwTlJDTUsayFssBV5Uxb-188" value="/planning/scenario_planning/max_velocity" style="edgeLabel;html=1;align=center;verticalAlign=middle;resizable=0;points=[];" parent="BwTlJDTUsayFssBV5Uxb-187" connectable="0" vertex="1">
                    <mxGeometry x="-0.0708" y="-2" relative="1" as="geometry">
                        <mxPoint x="12" y="-44" as="offset"/>
                    </mxGeometry>
                </mxCell>
                <mxCell id="BwTlJDTUsayFssBV5Uxb-133" value="external_velocity_limit_selector" style="rounded=1;whiteSpace=wrap;html=1;fillColor=none;strokeColor=#d79b00;fontStyle=1" parent="1" vertex="1">
                    <mxGeometry x="1790" y="1330" width="200" height="40" as="geometry"/>
                </mxCell>
                <mxCell id="BwTlJDTUsayFssBV5Uxb-137" style="edgeStyle=orthogonalEdgeStyle;rounded=0;orthogonalLoop=1;jettySize=auto;html=1;exitX=0.25;exitY=1;exitDx=0;exitDy=0;entryX=0.169;entryY=0.072;entryDx=0;entryDy=0;entryPerimeter=0;dashed=1;" parent="1" target="BwTlJDTUsayFssBV5Uxb-143" edge="1">
                    <mxGeometry relative="1" as="geometry">
                        <mxPoint x="1769.8600000000001" y="381.25" as="targetPoint"/>
                        <mxPoint x="1769.9299999999998" y="211.2499999999999" as="sourcePoint"/>
                    </mxGeometry>
                </mxCell>
                <mxCell id="BwTlJDTUsayFssBV5Uxb-139" value="&lt;div&gt;/api/routing/&lt;/div&gt;&lt;div&gt;set_route_points&lt;br&gt;&lt;/div&gt;" style="edgeLabel;html=1;align=center;verticalAlign=middle;resizable=0;points=[];" parent="BwTlJDTUsayFssBV5Uxb-137" connectable="0" vertex="1">
                    <mxGeometry x="-0.1902" y="-1" relative="1" as="geometry">
                        <mxPoint as="offset"/>
                    </mxGeometry>
                </mxCell>
                <mxCell id="BwTlJDTUsayFssBV5Uxb-138" style="edgeStyle=orthogonalEdgeStyle;rounded=0;orthogonalLoop=1;jettySize=auto;html=1;exitX=0.5;exitY=1;exitDx=0;exitDy=0;entryX=0.399;entryY=0.054;entryDx=0;entryDy=0;entryPerimeter=0;dashed=1;" parent="1" source="BwTlJDTUsayFssBV5Uxb-134" target="BwTlJDTUsayFssBV5Uxb-143" edge="1">
                    <mxGeometry relative="1" as="geometry">
                        <mxPoint x="1840.1562962962962" y="381.25" as="targetPoint"/>
                    </mxGeometry>
                </mxCell>
                <mxCell id="BwTlJDTUsayFssBV5Uxb-140" value="&lt;div&gt;/api/routing/&lt;/div&gt;&lt;div&gt;change_route_points&lt;br&gt;&lt;/div&gt;" style="edgeLabel;html=1;align=center;verticalAlign=middle;resizable=0;points=[];" parent="BwTlJDTUsayFssBV5Uxb-138" connectable="0" vertex="1">
                    <mxGeometry x="0.2184" y="3" relative="1" as="geometry">
                        <mxPoint x="6" y="17" as="offset"/>
                    </mxGeometry>
                </mxCell>
                <mxCell id="BwTlJDTUsayFssBV5Uxb-141" style="edgeStyle=orthogonalEdgeStyle;rounded=0;orthogonalLoop=1;jettySize=auto;html=1;exitX=0.75;exitY=1;exitDx=0;exitDy=0;dashed=1;" parent="1" source="BwTlJDTUsayFssBV5Uxb-134" target="BwTlJDTUsayFssBV5Uxb-143" edge="1">
                    <mxGeometry relative="1" as="geometry">
                        <mxPoint x="1979.8600000000001" y="381.25" as="targetPoint"/>
                        <Array as="points">
                            <mxPoint x="1889.8600000000001" y="296.25"/>
                            <mxPoint x="1959.8600000000001" y="296.25"/>
                        </Array>
                    </mxGeometry>
                </mxCell>
                <mxCell id="BwTlJDTUsayFssBV5Uxb-142" value="/api/routing/clear_route" style="edgeLabel;html=1;align=center;verticalAlign=middle;resizable=0;points=[];" parent="BwTlJDTUsayFssBV5Uxb-141" connectable="0" vertex="1">
                    <mxGeometry x="-0.126" y="-1" relative="1" as="geometry">
                        <mxPoint x="31" y="-11" as="offset"/>
                    </mxGeometry>
                </mxCell>
                <mxCell id="BwTlJDTUsayFssBV5Uxb-134" value="&lt;div&gt;/default_ad_api/helpers/&lt;/div&gt;&lt;div&gt;routing_adaptor&lt;br&gt;&lt;/div&gt;" style="rounded=1;whiteSpace=wrap;html=1;fillColor=none;strokeColor=#d79b00;fontStyle=1" parent="1" vertex="1">
                    <mxGeometry x="1739.8600000000001" y="171.25" width="200" height="40" as="geometry"/>
                </mxCell>
                <mxCell id="BwTlJDTUsayFssBV5Uxb-135" style="edgeStyle=orthogonalEdgeStyle;rounded=0;orthogonalLoop=1;jettySize=auto;html=1;entryX=0.75;entryY=0;entryDx=0;entryDy=0;" parent="1" edge="1">
                    <mxGeometry relative="1" as="geometry">
                        <mxPoint x="1938.12" y="48.75" as="sourcePoint"/>
                        <mxPoint x="1939.12" y="171.25" as="targetPoint"/>
                    </mxGeometry>
                </mxCell>
                <mxCell id="BwTlJDTUsayFssBV5Uxb-136" value="&lt;div&gt;/planning/&lt;/div&gt;&lt;div&gt;mission_planning/goal&lt;br&gt;&lt;/div&gt;" style="edgeLabel;html=1;align=center;verticalAlign=middle;resizable=0;points=[];" parent="BwTlJDTUsayFssBV5Uxb-135" connectable="0" vertex="1">
                    <mxGeometry x="-0.3115" y="3" relative="1" as="geometry">
                        <mxPoint x="-102" y="15" as="offset"/>
                    </mxGeometry>
                </mxCell>
                <mxCell id="BwTlJDTUsayFssBV5Uxb-149" style="edgeStyle=orthogonalEdgeStyle;rounded=0;orthogonalLoop=1;jettySize=auto;html=1;exitX=0.25;exitY=1;exitDx=0;exitDy=0;entryX=0.077;entryY=-0.1;entryDx=0;entryDy=0;dashed=1;entryPerimeter=0;" parent="1" source="BwTlJDTUsayFssBV5Uxb-143" target="BwTlJDTUsayFssBV5Uxb-144" edge="1">
                    <mxGeometry relative="1" as="geometry"/>
                </mxCell>
                <mxCell id="BwTlJDTUsayFssBV5Uxb-150" value="&lt;div align=&quot;left&quot;&gt;/planning/mission_planning/set_route,&lt;br&gt;&lt;span style=&quot;font-size: 11px;&quot;&gt;/planning/mission_planning/set_route_points,&lt;/span&gt;&lt;br&gt;&lt;span style=&quot;font-size: 11px;&quot;&gt;&lt;/span&gt;/planning/mission_planning/clear_route&lt;span style=&quot;font-size: 11px;&quot;&gt;&lt;/span&gt;&lt;br&gt;&lt;span style=&quot;font-size: 11px;&quot;&gt;&lt;/span&gt;&lt;/div&gt;" style="edgeLabel;html=1;align=left;verticalAlign=middle;resizable=0;points=[];" parent="BwTlJDTUsayFssBV5Uxb-149" connectable="0" vertex="1">
                    <mxGeometry x="-0.198" y="2" relative="1" as="geometry">
                        <mxPoint x="-97" y="2" as="offset"/>
                    </mxGeometry>
                </mxCell>
                <mxCell id="BwTlJDTUsayFssBV5Uxb-143" value="&lt;div&gt;/default_ad_api/node/routing&lt;br&gt;&lt;/div&gt;" style="rounded=1;whiteSpace=wrap;html=1;fillColor=none;strokeColor=#d79b00;fontStyle=1" parent="1" vertex="1">
                    <mxGeometry x="1719.8600000000001" y="381.25" width="300" height="40" as="geometry"/>
                </mxCell>
                <mxCell id="BwTlJDTUsayFssBV5Uxb-163" style="edgeStyle=orthogonalEdgeStyle;rounded=0;orthogonalLoop=1;jettySize=auto;html=1;exitX=0;exitY=0;exitDx=0;exitDy=0;entryX=0;entryY=0.5;entryDx=0;entryDy=0;" parent="1" source="BwTlJDTUsayFssBV5Uxb-144" target="BwTlJDTUsayFssBV5Uxb-143" edge="1">
                    <mxGeometry relative="1" as="geometry">
                        <Array as="points">
                            <mxPoint x="1599.8600000000001" y="591.25"/>
                            <mxPoint x="1599.8600000000001" y="401.25"/>
                        </Array>
                    </mxGeometry>
                </mxCell>
                <mxCell id="BwTlJDTUsayFssBV5Uxb-164" value="&lt;div&gt;/planning/mission_planning&lt;/div&gt;&lt;div&gt;/route_state&lt;/div&gt;" style="edgeLabel;html=1;align=center;verticalAlign=middle;resizable=0;points=[];" parent="BwTlJDTUsayFssBV5Uxb-163" connectable="0" vertex="1">
                    <mxGeometry x="-0.0426" relative="1" as="geometry">
                        <mxPoint as="offset"/>
                    </mxGeometry>
                </mxCell>
                <mxCell id="BwTlJDTUsayFssBV5Uxb-165" style="edgeStyle=orthogonalEdgeStyle;rounded=0;orthogonalLoop=1;jettySize=auto;html=1;exitX=0.5;exitY=1;exitDx=0;exitDy=0;" parent="1" source="BwTlJDTUsayFssBV5Uxb-144" edge="1">
                    <mxGeometry relative="1" as="geometry">
                        <mxPoint x="2250.3333333333335" y="780.0000000000002" as="targetPoint"/>
                    </mxGeometry>
                </mxCell>
                <mxCell id="BwTlJDTUsayFssBV5Uxb-166" value="/planning/mission_planning/route" style="edgeLabel;html=1;align=center;verticalAlign=middle;resizable=0;points=[];" parent="BwTlJDTUsayFssBV5Uxb-165" connectable="0" vertex="1">
                    <mxGeometry x="0.0072" y="5" relative="1" as="geometry">
                        <mxPoint x="-1" y="-2" as="offset"/>
                    </mxGeometry>
                </mxCell>
                <mxCell id="BwTlJDTUsayFssBV5Uxb-144" value="mission_planner" style="rounded=1;whiteSpace=wrap;html=1;fillColor=none;strokeColor=#d79b00;fontStyle=1" parent="1" vertex="1">
                    <mxGeometry x="1709.8600000000001" y="591.25" width="1080" height="40" as="geometry"/>
                </mxCell>
                <mxCell id="BwTlJDTUsayFssBV5Uxb-145" style="edgeStyle=orthogonalEdgeStyle;rounded=0;orthogonalLoop=1;jettySize=auto;html=1;exitX=0.5;exitY=1;exitDx=0;exitDy=0;entryX=0.968;entryY=-0.046;entryDx=0;entryDy=0;entryPerimeter=0;dashed=1;" parent="1" target="BwTlJDTUsayFssBV5Uxb-143" edge="1">
                    <mxGeometry relative="1" as="geometry">
                        <mxPoint x="2009.8600000000001" y="376.25" as="targetPoint"/>
                        <mxPoint x="2009.8600000000001" y="204.25" as="sourcePoint"/>
                    </mxGeometry>
                </mxCell>
                <mxCell id="BwTlJDTUsayFssBV5Uxb-146" value="&lt;div&gt;/api/routing/&lt;/div&gt;&lt;div&gt;set_route&lt;br&gt;&lt;/div&gt;" style="edgeLabel;html=1;align=center;verticalAlign=middle;resizable=0;points=[];" parent="BwTlJDTUsayFssBV5Uxb-145" connectable="0" vertex="1">
                    <mxGeometry x="0.2184" y="3" relative="1" as="geometry">
                        <mxPoint x="-3" y="-78" as="offset"/>
                    </mxGeometry>
                </mxCell>
                <mxCell id="BwTlJDTUsayFssBV5Uxb-152" style="edgeStyle=orthogonalEdgeStyle;rounded=0;orthogonalLoop=1;jettySize=auto;html=1;exitX=0.75;exitY=1;exitDx=0;exitDy=0;entryX=0.283;entryY=-0.075;entryDx=0;entryDy=0;entryPerimeter=0;dashed=1;" parent="1" source="BwTlJDTUsayFssBV5Uxb-143" target="BwTlJDTUsayFssBV5Uxb-144" edge="1">
                    <mxGeometry relative="1" as="geometry"/>
                </mxCell>
                <mxCell id="BwTlJDTUsayFssBV5Uxb-153" value="&lt;div align=&quot;left&quot;&gt;/planning/mission_planning/change_route,&lt;br&gt;&lt;span style=&quot;font-size: 11px;&quot;&gt;/planning/mission_planning/change_route_points&lt;/span&gt;&lt;/div&gt;" style="edgeLabel;html=1;align=left;verticalAlign=middle;resizable=0;points=[];" parent="BwTlJDTUsayFssBV5Uxb-152" connectable="0" vertex="1">
                    <mxGeometry x="-0.0477" y="-5" relative="1" as="geometry">
                        <mxPoint x="-23" y="-20" as="offset"/>
                    </mxGeometry>
                </mxCell>
                <mxCell id="BwTlJDTUsayFssBV5Uxb-154" style="edgeStyle=orthogonalEdgeStyle;rounded=0;orthogonalLoop=1;jettySize=auto;html=1;dashed=1;entryX=0.528;entryY=0.05;entryDx=0;entryDy=0;entryPerimeter=0;" parent="1" target="BwTlJDTUsayFssBV5Uxb-144" edge="1">
                    <mxGeometry relative="1" as="geometry">
                        <mxPoint x="2229.86" y="591.25" as="targetPoint"/>
                        <mxPoint x="2279.86" y="311.25" as="sourcePoint"/>
                    </mxGeometry>
                </mxCell>
                <mxCell id="BwTlJDTUsayFssBV5Uxb-155" value="&lt;div align=&quot;left&quot;&gt;/planning/mission_planning/mission_planner/srv/set_mrm_route,&lt;br&gt;&lt;span style=&quot;font-size: 11px;&quot;&gt;/planning/mission_planning/mission_planner/srv/clear_mrm_route&lt;/span&gt;&lt;/div&gt;" style="edgeLabel;html=1;align=left;verticalAlign=middle;resizable=0;points=[];" parent="BwTlJDTUsayFssBV5Uxb-154" connectable="0" vertex="1">
                    <mxGeometry x="0.2184" y="3" relative="1" as="geometry">
                        <mxPoint x="-103" y="-100" as="offset"/>
                    </mxGeometry>
                </mxCell>
                <mxCell id="BwTlJDTUsayFssBV5Uxb-157" style="edgeStyle=orthogonalEdgeStyle;rounded=0;orthogonalLoop=1;jettySize=auto;html=1;dashed=1;entryX=0.528;entryY=0.05;entryDx=0;entryDy=0;entryPerimeter=0;" parent="1" edge="1">
                    <mxGeometry relative="1" as="geometry">
                        <mxPoint x="2589.86" y="591.25" as="targetPoint"/>
                        <mxPoint x="2589.86" y="390.25" as="sourcePoint"/>
                    </mxGeometry>
                </mxCell>
                <mxCell id="BwTlJDTUsayFssBV5Uxb-158" value="/localization/kinematic_state" style="edgeLabel;html=1;align=left;verticalAlign=middle;resizable=0;points=[];" parent="BwTlJDTUsayFssBV5Uxb-157" connectable="0" vertex="1">
                    <mxGeometry x="0.2184" y="3" relative="1" as="geometry">
                        <mxPoint x="-73" y="-22" as="offset"/>
                    </mxGeometry>
                </mxCell>
                <mxCell id="BwTlJDTUsayFssBV5Uxb-159" style="edgeStyle=orthogonalEdgeStyle;rounded=0;orthogonalLoop=1;jettySize=auto;html=1;dashed=1;entryX=0.528;entryY=0.05;entryDx=0;entryDy=0;entryPerimeter=0;" parent="1" edge="1">
                    <mxGeometry relative="1" as="geometry">
                        <mxPoint x="2719.86" y="591.25" as="targetPoint"/>
                        <mxPoint x="2719.86" y="390.25" as="sourcePoint"/>
                    </mxGeometry>
                </mxCell>
                <mxCell id="BwTlJDTUsayFssBV5Uxb-160" value="/map/vector_map" style="edgeLabel;html=1;align=left;verticalAlign=middle;resizable=0;points=[];" parent="BwTlJDTUsayFssBV5Uxb-159" connectable="0" vertex="1">
                    <mxGeometry x="0.2184" y="3" relative="1" as="geometry">
                        <mxPoint x="-53" y="-61" as="offset"/>
                    </mxGeometry>
                </mxCell>
                <mxCell id="BwTlJDTUsayFssBV5Uxb-161" style="edgeStyle=orthogonalEdgeStyle;rounded=0;orthogonalLoop=1;jettySize=auto;html=1;dashed=1;entryX=1;entryY=0;entryDx=0;entryDy=0;" parent="1" target="BwTlJDTUsayFssBV5Uxb-144" edge="1">
                    <mxGeometry relative="1" as="geometry">
                        <mxPoint x="2899.86" y="602.25" as="targetPoint"/>
                        <mxPoint x="2899.86" y="401.25" as="sourcePoint"/>
                    </mxGeometry>
                </mxCell>
                <mxCell id="BwTlJDTUsayFssBV5Uxb-162" value="/planning/scenario_planning/modified_goal" style="edgeLabel;html=1;align=left;verticalAlign=middle;resizable=0;points=[];" parent="BwTlJDTUsayFssBV5Uxb-161" connectable="0" vertex="1">
                    <mxGeometry x="0.2184" y="3" relative="1" as="geometry">
                        <mxPoint x="97" y="-73" as="offset"/>
                    </mxGeometry>
                </mxCell>
                <mxCell id="BwTlJDTUsayFssBV5Uxb-169" style="edgeStyle=orthogonalEdgeStyle;rounded=0;orthogonalLoop=1;jettySize=auto;html=1;entryX=0.5;entryY=0;entryDx=0;entryDy=0;" parent="1" source="BwTlJDTUsayFssBV5Uxb-167" target="BwTlJDTUsayFssBV5Uxb-168" edge="1">
                    <mxGeometry relative="1" as="geometry"/>
                </mxCell>
                <mxCell id="BwTlJDTUsayFssBV5Uxb-171" value="&lt;div align=&quot;left&quot;&gt;/planning/scenario_planning/lane_driving/&lt;/div&gt;&lt;div align=&quot;left&quot;&gt;behavior_planning/path_with_lane_id&lt;/div&gt;" style="edgeLabel;html=1;align=left;verticalAlign=middle;resizable=0;points=[];" parent="BwTlJDTUsayFssBV5Uxb-169" connectable="0" vertex="1">
                    <mxGeometry x="-0.1414" y="1" relative="1" as="geometry">
                        <mxPoint x="-101" as="offset"/>
                    </mxGeometry>
                </mxCell>
                <mxCell id="BwTlJDTUsayFssBV5Uxb-167" value="behavior_path_planner" style="rounded=1;whiteSpace=wrap;html=1;fillColor=none;strokeColor=#d79b00;fontStyle=1" parent="1" vertex="1">
                    <mxGeometry x="2149.86" y="780" width="200" height="40" as="geometry"/>
                </mxCell>
                <mxCell id="BwTlJDTUsayFssBV5Uxb-173" value="" style="edgeStyle=orthogonalEdgeStyle;rounded=0;orthogonalLoop=1;jettySize=auto;html=1;" parent="1" source="BwTlJDTUsayFssBV5Uxb-168" target="BwTlJDTUsayFssBV5Uxb-172" edge="1">
                    <mxGeometry relative="1" as="geometry"/>
                </mxCell>
                <mxCell id="BwTlJDTUsayFssBV5Uxb-174" value="&lt;div align=&quot;left&quot;&gt;/planning/scenario_planning/lane_driving/&lt;/div&gt;&lt;div align=&quot;left&quot;&gt;behavior_planning/path&lt;/div&gt;" style="edgeLabel;html=1;align=left;verticalAlign=middle;resizable=0;points=[];" parent="BwTlJDTUsayFssBV5Uxb-173" connectable="0" vertex="1">
                    <mxGeometry x="-0.1333" y="1" relative="1" as="geometry">
                        <mxPoint x="-101" y="1" as="offset"/>
                    </mxGeometry>
                </mxCell>
                <mxCell id="BwTlJDTUsayFssBV5Uxb-168" value="behavior_velocity_planner" style="rounded=1;whiteSpace=wrap;html=1;fillColor=none;strokeColor=#d79b00;fontStyle=1" parent="1" vertex="1">
                    <mxGeometry x="2149.86" y="890" width="200" height="40" as="geometry"/>
                </mxCell>
                <mxCell id="BwTlJDTUsayFssBV5Uxb-176" value="" style="edgeStyle=orthogonalEdgeStyle;rounded=0;orthogonalLoop=1;jettySize=auto;html=1;" parent="1" source="BwTlJDTUsayFssBV5Uxb-172" target="BwTlJDTUsayFssBV5Uxb-175" edge="1">
                    <mxGeometry relative="1" as="geometry"/>
                </mxCell>
                <mxCell id="BwTlJDTUsayFssBV5Uxb-177" value="/planning/scenario_planning/lane_driving/&lt;br&gt;motion_planning/path_smoother/path" style="edgeLabel;html=1;align=center;verticalAlign=middle;resizable=0;points=[];" parent="BwTlJDTUsayFssBV5Uxb-176" connectable="0" vertex="1">
                    <mxGeometry x="-0.145" y="-3" relative="1" as="geometry">
                        <mxPoint as="offset"/>
                    </mxGeometry>
                </mxCell>
                <mxCell id="BwTlJDTUsayFssBV5Uxb-172" value="elastic_band_smoother" style="rounded=1;whiteSpace=wrap;html=1;fillColor=none;strokeColor=#d79b00;fontStyle=1" parent="1" vertex="1">
                    <mxGeometry x="2149.86" y="1020" width="200" height="40" as="geometry"/>
                </mxCell>
                <mxCell id="BwTlJDTUsayFssBV5Uxb-179" value="" style="edgeStyle=orthogonalEdgeStyle;rounded=0;orthogonalLoop=1;jettySize=auto;html=1;" parent="1" source="BwTlJDTUsayFssBV5Uxb-175" target="BwTlJDTUsayFssBV5Uxb-178" edge="1">
                    <mxGeometry relative="1" as="geometry"/>
                </mxCell>
                <mxCell id="BwTlJDTUsayFssBV5Uxb-180" value="&lt;div&gt;/planning/scenario_planning/lane_driving/motion_planning&lt;/div&gt;&lt;div&gt;/obstacle_avoidance_planner/trajectory&lt;/div&gt;" style="edgeLabel;html=1;align=center;verticalAlign=middle;resizable=0;points=[];" parent="BwTlJDTUsayFssBV5Uxb-179" connectable="0" vertex="1">
                    <mxGeometry x="-0.1633" y="1" relative="1" as="geometry">
                        <mxPoint as="offset"/>
                    </mxGeometry>
                </mxCell>
                <mxCell id="BwTlJDTUsayFssBV5Uxb-175" value="obstacle_avoidance_planner" style="rounded=1;whiteSpace=wrap;html=1;fillColor=none;strokeColor=#d79b00;fontStyle=1" parent="1" vertex="1">
                    <mxGeometry x="2149.86" y="1150" width="200" height="40" as="geometry"/>
                </mxCell>
                <mxCell id="BwTlJDTUsayFssBV5Uxb-182" value="" style="edgeStyle=orthogonalEdgeStyle;rounded=0;orthogonalLoop=1;jettySize=auto;html=1;" parent="1" source="BwTlJDTUsayFssBV5Uxb-178" target="BwTlJDTUsayFssBV5Uxb-181" edge="1">
                    <mxGeometry relative="1" as="geometry"/>
                </mxCell>
                <mxCell id="BwTlJDTUsayFssBV5Uxb-183" value="&lt;div&gt;/planning/scenario_planning/lane_driving/&lt;/div&gt;&lt;div&gt;motion_planning/obstacle_velocity_limiter/trajectory&lt;/div&gt;" style="edgeLabel;html=1;align=center;verticalAlign=middle;resizable=0;points=[];" parent="BwTlJDTUsayFssBV5Uxb-182" connectable="0" vertex="1">
                    <mxGeometry x="-0.1769" y="2" relative="1" as="geometry">
                        <mxPoint as="offset"/>
                    </mxGeometry>
                </mxCell>
                <mxCell id="BwTlJDTUsayFssBV5Uxb-178" value="obstacle_velocity_limiter" style="rounded=1;whiteSpace=wrap;html=1;fillColor=none;strokeColor=#d79b00;fontStyle=1" parent="1" vertex="1">
                    <mxGeometry x="2149.86" y="1260" width="200" height="40" as="geometry"/>
                </mxCell>
                <mxCell id="BwTlJDTUsayFssBV5Uxb-184" style="edgeStyle=orthogonalEdgeStyle;rounded=0;orthogonalLoop=1;jettySize=auto;html=1;exitX=0.5;exitY=1;exitDx=0;exitDy=0;entryX=0.5;entryY=0;entryDx=0;entryDy=0;" parent="1" source="BwTlJDTUsayFssBV5Uxb-181" target="BwTlJDTUsayFssBV5Uxb-186" edge="1">
                    <mxGeometry relative="1" as="geometry">
                        <mxPoint x="2250" y="1490" as="targetPoint"/>
                    </mxGeometry>
                </mxCell>
                <mxCell id="BwTlJDTUsayFssBV5Uxb-185" value="&lt;div&gt;/planning/scenario_planning/&lt;/div&gt;&lt;div&gt;lane_driving/trajectory&lt;/div&gt;" style="edgeLabel;html=1;align=center;verticalAlign=middle;resizable=0;points=[];" parent="BwTlJDTUsayFssBV5Uxb-184" connectable="0" vertex="1">
                    <mxGeometry x="-0.1454" y="-2" relative="1" as="geometry">
                        <mxPoint as="offset"/>
                    </mxGeometry>
                </mxCell>
                <mxCell id="BwTlJDTUsayFssBV5Uxb-189" style="edgeStyle=orthogonalEdgeStyle;rounded=0;orthogonalLoop=1;jettySize=auto;html=1;exitX=1;exitY=0.5;exitDx=0;exitDy=0;" parent="1" source="BwTlJDTUsayFssBV5Uxb-181" edge="1">
                    <mxGeometry relative="1" as="geometry">
                        <mxPoint x="2660" y="1390" as="targetPoint"/>
                    </mxGeometry>
                </mxCell>
                <mxCell id="BwTlJDTUsayFssBV5Uxb-190" value="/planning/scenario_planning/status/stop_reason" style="edgeLabel;html=1;align=center;verticalAlign=middle;resizable=0;points=[];" parent="BwTlJDTUsayFssBV5Uxb-189" connectable="0" vertex="1">
                    <mxGeometry x="-0.4105" y="-2" relative="1" as="geometry">
                        <mxPoint x="58" y="-2" as="offset"/>
                    </mxGeometry>
                </mxCell>
                <mxCell id="BwTlJDTUsayFssBV5Uxb-181" value="obstacle_stop_planner" style="rounded=1;whiteSpace=wrap;html=1;fillColor=none;strokeColor=#d79b00;fontStyle=1" parent="1" vertex="1">
                    <mxGeometry x="2149.86" y="1370" width="200" height="40" as="geometry"/>
                </mxCell>
                <mxCell id="BwTlJDTUsayFssBV5Uxb-191" style="edgeStyle=orthogonalEdgeStyle;rounded=0;orthogonalLoop=1;jettySize=auto;html=1;exitX=0.5;exitY=1;exitDx=0;exitDy=0;entryX=0.5;entryY=0;entryDx=0;entryDy=0;" parent="1" source="BwTlJDTUsayFssBV5Uxb-186" target="BwTlJDTUsayFssBV5Uxb-194" edge="1">
                    <mxGeometry relative="1" as="geometry">
                        <mxPoint x="2250" y="1670" as="targetPoint"/>
                    </mxGeometry>
                </mxCell>
                <mxCell id="BwTlJDTUsayFssBV5Uxb-192" value="&lt;div&gt;/planning/scenario_planning/&lt;/div&gt;&lt;div&gt;scenario_selector/trajectory&lt;/div&gt;" style="edgeLabel;html=1;align=center;verticalAlign=middle;resizable=0;points=[];" parent="BwTlJDTUsayFssBV5Uxb-191" connectable="0" vertex="1">
                    <mxGeometry x="-0.0547" relative="1" as="geometry">
                        <mxPoint as="offset"/>
                    </mxGeometry>
                </mxCell>
                <mxCell id="BwTlJDTUsayFssBV5Uxb-186" value="scenario_selector" style="rounded=1;whiteSpace=wrap;html=1;fillColor=none;strokeColor=#d79b00;fontStyle=1" parent="1" vertex="1">
                    <mxGeometry x="2149.86" y="1510" width="200" height="40" as="geometry"/>
                </mxCell>
                <mxCell id="BwTlJDTUsayFssBV5Uxb-193" value="" style="endArrow=classic;html=1;rounded=0;entryX=0;entryY=0.5;entryDx=0;entryDy=0;" parent="1" target="BwTlJDTUsayFssBV5Uxb-181" edge="1">
                    <mxGeometry width="50" height="50" relative="1" as="geometry">
                        <mxPoint x="1890" y="1290" as="sourcePoint"/>
                        <mxPoint x="2080" y="1420" as="targetPoint"/>
                        <Array as="points">
                            <mxPoint x="2060" y="1320"/>
                        </Array>
                    </mxGeometry>
                </mxCell>
                <mxCell id="BwTlJDTUsayFssBV5Uxb-196" value="" style="edgeStyle=orthogonalEdgeStyle;rounded=0;orthogonalLoop=1;jettySize=auto;html=1;" parent="1" source="BwTlJDTUsayFssBV5Uxb-194" target="BwTlJDTUsayFssBV5Uxb-195" edge="1">
                    <mxGeometry relative="1" as="geometry"/>
                </mxCell>
                <mxCell id="BwTlJDTUsayFssBV5Uxb-197" value="&lt;span style=&quot;color: rgb(0, 0, 0); font-family: Helvetica; font-size: 11px; font-style: normal; font-variant-ligatures: normal; font-variant-caps: normal; font-weight: 400; letter-spacing: normal; orphans: 2; text-align: center; text-indent: 0px; text-transform: none; widows: 2; word-spacing: 0px; -webkit-text-stroke-width: 0px; background-color: rgb(255, 255, 255); text-decoration-thickness: initial; text-decoration-style: initial; text-decoration-color: initial; float: none; display: inline !important;&quot;&gt;/planning/scenario_planning/motion_velocity_smoother/trajectory&lt;/span&gt;" style="edgeLabel;html=1;align=center;verticalAlign=middle;resizable=0;points=[];" parent="BwTlJDTUsayFssBV5Uxb-196" connectable="0" vertex="1">
                    <mxGeometry x="-0.0684" y="2" relative="1" as="geometry">
                        <mxPoint as="offset"/>
                    </mxGeometry>
                </mxCell>
                <mxCell id="BwTlJDTUsayFssBV5Uxb-194" value="motion_velocity_smoother" style="rounded=1;whiteSpace=wrap;html=1;fillColor=none;strokeColor=#d79b00;fontStyle=1" parent="1" vertex="1">
                    <mxGeometry x="2149.86" y="1680" width="200" height="40" as="geometry"/>
                </mxCell>
                <mxCell id="BwTlJDTUsayFssBV5Uxb-198" style="edgeStyle=orthogonalEdgeStyle;rounded=0;orthogonalLoop=1;jettySize=auto;html=1;exitX=0.5;exitY=1;exitDx=0;exitDy=0;" parent="1" source="BwTlJDTUsayFssBV5Uxb-195" edge="1">
                    <mxGeometry relative="1" as="geometry">
                        <mxPoint x="2250" y="1960" as="targetPoint"/>
                    </mxGeometry>
                </mxCell>
                <mxCell id="BwTlJDTUsayFssBV5Uxb-199" value="&lt;span style=&quot;color: rgb(0, 0, 0); font-family: Helvetica; font-size: 11px; font-style: normal; font-variant-ligatures: normal; font-variant-caps: normal; font-weight: 400; letter-spacing: normal; orphans: 2; text-align: center; text-indent: 0px; text-transform: none; widows: 2; word-spacing: 0px; -webkit-text-stroke-width: 0px; background-color: rgb(255, 255, 255); text-decoration-thickness: initial; text-decoration-style: initial; text-decoration-color: initial; float: none; display: inline !important;&quot;&gt;/planning/scenario_planning/trajectory&lt;/span&gt;" style="edgeLabel;html=1;align=center;verticalAlign=middle;resizable=0;points=[];" parent="BwTlJDTUsayFssBV5Uxb-198" connectable="0" vertex="1">
                    <mxGeometry x="-0.1172" y="-1" relative="1" as="geometry">
                        <mxPoint as="offset"/>
                    </mxGeometry>
                </mxCell>
                <mxCell id="BwTlJDTUsayFssBV5Uxb-195" value="planning_validator" style="rounded=1;whiteSpace=wrap;html=1;fillColor=none;strokeColor=#d79b00;fontStyle=1" parent="1" vertex="1">
                    <mxGeometry x="2149.86" y="1810" width="200" height="40" as="geometry"/>
                </mxCell>
                <mxCell id="BwTlJDTUsayFssBV5Uxb-205" style="edgeStyle=orthogonalEdgeStyle;rounded=0;orthogonalLoop=1;jettySize=auto;html=1;exitX=0.5;exitY=1;exitDx=0;exitDy=0;" parent="1" source="BwTlJDTUsayFssBV5Uxb-203" edge="1">
                    <mxGeometry relative="1" as="geometry">
                        <mxPoint x="1200" y="1520" as="targetPoint"/>
                    </mxGeometry>
                </mxCell>
                <mxCell id="BwTlJDTUsayFssBV5Uxb-208" value="/control/trajectory_follower/control_cmd" style="edgeLabel;html=1;align=center;verticalAlign=middle;resizable=0;points=[];" parent="BwTlJDTUsayFssBV5Uxb-205" connectable="0" vertex="1">
                    <mxGeometry x="-0.0386" y="-1" relative="1" as="geometry">
                        <mxPoint as="offset"/>
                    </mxGeometry>
                </mxCell>
                <mxCell id="BwTlJDTUsayFssBV5Uxb-203" value="controller_node_exe" style="rounded=1;whiteSpace=wrap;html=1;fillColor=none;strokeColor=#9673a6;fontStyle=1" parent="1" vertex="1">
                    <mxGeometry x="1090" y="1350" width="220" height="40" as="geometry"/>
                </mxCell>
                <mxCell id="BwTlJDTUsayFssBV5Uxb-206" style="edgeStyle=orthogonalEdgeStyle;rounded=0;orthogonalLoop=1;jettySize=auto;html=1;exitX=0.5;exitY=1;exitDx=0;exitDy=0;" parent="1" edge="1">
                    <mxGeometry relative="1" as="geometry">
                        <mxPoint x="1199.33" y="1350" as="targetPoint"/>
                        <mxPoint x="1199.33" y="1220" as="sourcePoint"/>
                        <Array as="points">
                            <mxPoint x="1199.33" y="1260"/>
                            <mxPoint x="1199.33" y="1260"/>
                        </Array>
                    </mxGeometry>
                </mxCell>
                <mxCell id="BwTlJDTUsayFssBV5Uxb-207" value="/planning/scenario_planning/trajectory" style="edgeLabel;html=1;align=center;verticalAlign=middle;resizable=0;points=[];" parent="BwTlJDTUsayFssBV5Uxb-206" connectable="0" vertex="1">
                    <mxGeometry x="-0.0205" y="2" relative="1" as="geometry">
                        <mxPoint as="offset"/>
                    </mxGeometry>
                </mxCell>
                <mxCell id="BwTlJDTUsayFssBV5Uxb-210" style="edgeStyle=orthogonalEdgeStyle;rounded=0;orthogonalLoop=1;jettySize=auto;html=1;exitX=0.5;exitY=1;exitDx=0;exitDy=0;entryX=0.5;entryY=0;entryDx=0;entryDy=0;" parent="1" source="BwTlJDTUsayFssBV5Uxb-209" target="BwTlJDTUsayFssBV5Uxb-212" edge="1">
                    <mxGeometry relative="1" as="geometry">
                        <mxPoint x="1199.8064516129032" y="1660" as="targetPoint"/>
                    </mxGeometry>
                </mxCell>
                <mxCell id="BwTlJDTUsayFssBV5Uxb-211" value="/control/command/control_cmd" style="edgeLabel;html=1;align=center;verticalAlign=middle;resizable=0;points=[];" parent="BwTlJDTUsayFssBV5Uxb-210" connectable="0" vertex="1">
                    <mxGeometry x="-0.0772" relative="1" as="geometry">
                        <mxPoint as="offset"/>
                    </mxGeometry>
                </mxCell>
                <mxCell id="BwTlJDTUsayFssBV5Uxb-209" value="vehicle_cmd_gate" style="rounded=1;whiteSpace=wrap;html=1;fillColor=none;strokeColor=#9673a6;fontStyle=1" parent="1" vertex="1">
                    <mxGeometry x="1090" y="1520" width="220" height="40" as="geometry"/>
                </mxCell>
                <mxCell id="BwTlJDTUsayFssBV5Uxb-213" style="edgeStyle=orthogonalEdgeStyle;rounded=0;orthogonalLoop=1;jettySize=auto;html=1;" parent="1" source="BwTlJDTUsayFssBV5Uxb-212" edge="1">
                    <mxGeometry relative="1" as="geometry">
                        <mxPoint x="1200" y="1780" as="targetPoint"/>
                    </mxGeometry>
                </mxCell>
                <mxCell id="BwTlJDTUsayFssBV5Uxb-214" value="ackermann_cmd" style="edgeLabel;html=1;align=center;verticalAlign=middle;resizable=0;points=[];" parent="BwTlJDTUsayFssBV5Uxb-213" connectable="0" vertex="1">
                    <mxGeometry x="0.0267" y="1" relative="1" as="geometry">
                        <mxPoint as="offset"/>
                    </mxGeometry>
                </mxCell>
                <mxCell id="BwTlJDTUsayFssBV5Uxb-212" value="odom_status_converter_node" style="rounded=1;whiteSpace=wrap;html=1;fillColor=none;strokeColor=#9673a6;fontStyle=1" parent="1" vertex="1">
                    <mxGeometry x="1090" y="1650" width="220" height="40" as="geometry"/>
                </mxCell>
                <mxCell id="BwTlJDTUsayFssBV5Uxb-215" value="END" style="rounded=1;whiteSpace=wrap;html=1;fillColor=none;strokeColor=#9673a6;fontStyle=1" parent="1" vertex="1">
                    <mxGeometry x="1090" y="1780" width="220" height="40" as="geometry"/>
                </mxCell>
                <mxCell id="BwTlJDTUsayFssBV5Uxb-217" value="&lt;b&gt;&lt;font style=&quot;font-size: 48px;&quot;&gt;Localization&lt;/font&gt;&lt;/b&gt;" style="text;html=1;align=center;verticalAlign=middle;whiteSpace=wrap;rounded=0;" parent="1" vertex="1">
                    <mxGeometry x="320" y="770" width="60" height="30" as="geometry"/>
                </mxCell>
                <mxCell id="BwTlJDTUsayFssBV5Uxb-218" value="&lt;font style=&quot;font-size: 48px;&quot;&gt;&lt;b&gt;Perception&lt;/b&gt;&lt;br&gt;&lt;/font&gt;" style="text;html=1;align=center;verticalAlign=middle;whiteSpace=wrap;rounded=0;" parent="1" vertex="1">
                    <mxGeometry x="550" y="2080" width="330" height="70" as="geometry"/>
                </mxCell>
                <mxCell id="BwTlJDTUsayFssBV5Uxb-221" value="&lt;font style=&quot;font-size: 48px;&quot;&gt;&lt;b&gt;Control&lt;/b&gt;&lt;/font&gt;" style="text;html=1;align=center;verticalAlign=middle;whiteSpace=wrap;rounded=0;" parent="1" vertex="1">
                    <mxGeometry x="1035" y="1910" width="330" height="70" as="geometry"/>
                </mxCell>
                <mxCell id="BwTlJDTUsayFssBV5Uxb-222" value="&lt;font style=&quot;font-size: 48px;&quot;&gt;&lt;b&gt;Planning&lt;/b&gt;&lt;/font&gt;" style="text;html=1;align=center;verticalAlign=middle;whiteSpace=wrap;rounded=0;" parent="1" vertex="1">
                    <mxGeometry x="2510" y="80" width="330" height="70" as="geometry"/>
                </mxCell>
            </root>
        </mxGraphModel>
    </diagram>
</mxfile>